<svg xmlns="http://www.w3.org/2000/svg" viewBox="0 0 1200 900" role="img" aria-labelledby="title desc">
<title id="title">Un pasaporte como sistema de puertas</title>
<desc id="desc">Ilustración abstracta de un pasaporte abierto que conecta fronteras, sellos, datos y un mundo de puertas.</desc>
<defs>
  <linearGradient id="bg" x1="0" y1="0" x2="1" y2="1"><stop stop-color="#080715"/><stop offset=".52" stop-color="#171044"/><stop offset="1" stop-color="#081e35"/></linearGradient>
  <linearGradient id="paper" x1="0" y1="0" x2="1" y2="1"><stop stop-color="#f4efff"/><stop offset="1" stop-color="#c9dff0"/></linearGradient>
  <linearGradient id="violet" x1="0" y1="0" x2="1" y2="0"><stop stop-color="#8b5cf6"/><stop offset="1" stop-color="#54d9e6"/></linearGradient>
  <filter id="glow"><feGaussianBlur stdDeviation="16" result="b"/><feMerge><feMergeNode in="b"/><feMergeNode in="SourceGraphic"/></feMerge></filter>
</defs>
<rect width="1200" height="900" fill="url(#bg)"/>
<circle cx="980" cy="160" r="210" fill="#3ddde6" opacity=".08"/>
<circle cx="175" cy="760" r="280" fill="#8b5cf6" opacity=".10"/>
<g opacity=".22" stroke="#87e7eb" fill="none">
  <path d="M90 195C310 80 410 270 615 155S965 90 1130 205"/>
  <path d="M70 695C260 560 430 760 610 640S930 570 1140 705"/>
  <circle cx="600" cy="450" r="318"/><ellipse cx="600" cy="450" rx="318" ry="126"/><path d="M600 132c-120 105-120 531 0 636M600 132c120 105 120 531 0 636"/>
</g>
<g filter="url(#glow)" opacity=".9">
  <path d="M235 230h140v390H235z" fill="#6f4bdd" opacity=".22"/><path d="M825 210h142v420H825z" fill="#33c8d4" opacity=".18"/>
  <path d="M255 250h100v350H255zM845 230h102v380H845z" stroke="url(#violet)" stroke-width="5" fill="#0c0a25"/>
  <circle cx="335" cy="430" r="7" fill="#7de2e7"/><circle cx="865" cy="420" r="7" fill="#bda7ff"/>
</g>
<g transform="translate(155 260) rotate(-3 445 255)">
  <path d="M20 70Q215 15 445 86v392Q220 408 20 472z" fill="url(#paper)" stroke="#a895e9" stroke-width="4"/>
  <path d="M445 86Q675 15 870 70v402Q670 408 445 478z" fill="url(#paper)" stroke="#73d9e1" stroke-width="4"/>
  <path d="M445 86v392" stroke="#55497b" stroke-width="8" opacity=".5"/>
  <g fill="none" stroke="#6a5f84" opacity=".34">
    <circle cx="230" cy="225" r="92"/><ellipse cx="230" cy="225" rx="92" ry="36"/><path d="M230 133c-36 36-36 148 0 184M230 133c36 36 36 148 0 184"/>
  </g>
  <g fill="#554a70" opacity=".55"><rect x="85" y="355" width="300" height="9" rx="4"/><rect x="85" y="380" width="265" height="9" rx="4"/><rect x="505" y="130" width="280" height="10" rx="5"/><rect x="505" y="158" width="215" height="10" rx="5"/></g>
  <g fill="#251c45" opacity=".84" font-family="monospace" font-size="18"><text x="500" y="344">P&lt;UTO&lt;&lt;HOLDER&lt;&lt;OF&lt;&lt;DOORS&lt;&lt;&lt;</text><text x="500" y="372">L898902C36UTO7408122F1204159&lt;&lt;&lt;</text></g>
  <g transform="translate(650 250) rotate(8)"><circle r="78" fill="none" stroke="#7757d7" stroke-width="7" opacity=".55"/><circle r="55" fill="none" stroke="#54cbd5" stroke-width="3" opacity=".7"/><path d="M-70 0h140M0-70v140" stroke="#7757d7" stroke-width="3" opacity=".42"/></g>
</g>
<g fill="#94eef0"><circle cx="198" cy="177" r="5"/><circle cx="1040" cy="705" r="5"/><circle cx="1005" cy="118" r="4"/></g>
</svg>
